<svg width="38" height="38" viewBox="0 0 38 38" fill="none" xmlns="http://www.w3.org/2000/svg">
<path d="M12.7 25.3V19.619L30.854 1.46545C31.0333 1.25245 31.253 1.10112 31.513 1.01145C31.7727 0.921787 32.0453 0.876953 32.331 0.876953C32.6333 0.876953 32.9185 0.93212 33.1865 1.04245C33.4542 1.15245 33.701 1.29729 33.927 1.47695L36.319 3.85396C36.5833 4.09229 36.7687 4.35396 36.875 4.63896C36.9813 4.92429 37.0345 5.22045 37.0345 5.52745C37.0345 5.83479 36.9808 6.11895 36.8735 6.37995C36.7662 6.64095 36.607 6.88729 36.396 7.11895L18.1885 25.3H12.7ZM31.9075 8.54595L34.796 5.55746L32.3925 2.94995L29.377 6.01545L31.9075 8.54595ZM3.61901 37.8C2.68735 37.8 1.88451 37.4631 1.21051 36.7895C0.536846 36.1155 0.200012 35.3126 0.200012 34.381V7.61895C0.200012 6.68729 0.536846 5.88446 1.21051 5.21046C1.88451 4.53679 2.68735 4.19995 3.61901 4.19995H21.9845L8.39251 17.7925V29.6075H19.9425L33.8 15.75V34.381C33.8 35.3126 33.4632 36.1155 32.7895 36.7895C32.1155 37.4631 31.3127 37.8 30.381 37.8H3.61901Z" fill="#00FF7F"/>
</svg>
