<svg width="30" height="38" viewBox="0 0 30 38" fill="none" xmlns="http://www.w3.org/2000/svg">
<path d="M6.97701 27.2728H22.9845L27.0345 10.9768L16.119 0.995801V12.0808C16.568 12.2781 16.936 12.5765 17.223 12.9758C17.5103 13.3755 17.654 13.8348 17.654 14.3538C17.654 15.0988 17.3855 15.7253 16.8485 16.2333C16.3115 16.7416 15.6917 16.9958 14.989 16.9958C14.2937 16.9958 13.6813 16.7416 13.152 16.2333C12.6223 15.7253 12.3575 15.0988 12.3575 14.3538C12.3575 13.8348 12.5012 13.3691 12.7885 12.9568C13.0755 12.5445 13.4563 12.2525 13.931 12.0808V0.945801L2.92701 10.9768L6.97701 27.2728ZM0.200012 37.7998L1.29801 35.0318C1.53768 34.4131 1.90685 33.9115 2.40551 33.5268C2.90385 33.1421 3.51484 32.9498 4.23851 32.9498H25.8115C26.5018 32.9498 27.0962 33.1421 27.5945 33.5268C28.0932 33.9115 28.479 34.4131 28.752 35.0318L29.85 37.7998H0.200012Z" fill="#00FF7F"/>
</svg>
