<svg width="42" height="22" viewBox="0 0 42 22" fill="none" xmlns="http://www.w3.org/2000/svg">
<path d="M10.9 21.75C7.91402 21.75 5.37586 20.7048 3.28552 18.6145C1.19519 16.5245 0.150024 13.9863 0.150024 11C0.150024 8.014 1.19519 5.47583 3.28552 3.3855C5.37586 1.29517 7.91402 0.25 10.9 0.25H31.1C34.086 0.25 36.6242 1.29517 38.7145 3.3855C40.8049 5.4755 41.85 8.01367 41.85 11C41.85 13.986 40.8049 16.5242 38.7145 18.6145C36.6242 20.7048 34.086 21.75 31.1 21.75H10.9ZM31.1055 16.2C32.5615 16.2 33.7995 15.6983 34.8195 14.695C35.8399 13.6917 36.35 12.4605 36.35 11.0015C36.35 9.5425 35.8405 8.31083 34.8215 7.3065C33.8022 6.30217 32.5645 5.8 31.1085 5.8C29.6525 5.8 28.4224 6.30167 27.418 7.305C26.4137 8.30833 25.9115 9.5395 25.9115 10.9985C25.9115 12.4575 26.4132 13.6892 27.4165 14.6935C28.4199 15.6978 29.6495 16.2 31.1055 16.2Z" fill="#00FF7F"/>
</svg>
