<svg width="38" height="38" viewBox="0 0 38 38" fill="none" xmlns="http://www.w3.org/2000/svg">
<path d="M15.119 37.7999L14.2615 31.8769C13.6255 31.6769 12.8928 31.3487 12.0635 30.8924C11.2338 30.4357 10.5473 29.9601 10.004 29.4654L4.51895 31.9074L0.626953 24.8769L5.38445 21.2884C5.35112 20.9524 5.31329 20.5691 5.27095 20.1384C5.22862 19.7077 5.20745 19.3077 5.20745 18.9384C5.20745 18.6281 5.22862 18.2659 5.27095 17.8519C5.31329 17.4379 5.35112 17.0077 5.38445 16.5614L0.626953 12.9844L4.51895 6.1189L9.86545 8.4844C10.4858 7.98974 11.1935 7.51223 11.9885 7.0519C12.7835 6.59157 13.5283 6.24857 14.223 6.0229L15.119 0.149902H22.931L23.7385 6.0614C24.5101 6.3384 25.257 6.68774 25.979 7.1094C26.7006 7.5314 27.368 7.98974 27.981 8.4844L33.569 6.1189L37.423 12.9844L32.4115 16.6654C32.4961 17.0934 32.5615 17.5101 32.6075 17.9154C32.6538 18.3204 32.677 18.6819 32.677 18.9999C32.677 19.2922 32.6475 19.6391 32.5885 20.0404C32.5295 20.4417 32.4871 20.8654 32.4615 21.3114L37.3345 24.8769L33.4425 31.9074L27.881 29.4269C27.2346 29.9729 26.5563 30.4632 25.846 30.8979C25.136 31.3326 24.4501 31.6461 23.7885 31.8384L22.931 37.7999H15.119ZM18.8345 24.4189C20.3731 24.4189 21.6693 23.8921 22.723 22.8384C23.777 21.7844 24.304 20.4882 24.304 18.9499C24.304 17.4116 23.777 16.1154 22.723 15.0614C21.6693 14.0077 20.3731 13.4809 18.8345 13.4809C17.3218 13.4809 16.0321 14.0077 14.9655 15.0614C13.8988 16.1154 13.3655 17.4116 13.3655 18.9499C13.3655 20.4882 13.8988 21.7844 14.9655 22.8384C16.0321 23.8921 17.3218 24.4189 18.8345 24.4189Z" fill="#00FF7F"/>
</svg>
