<svg width="600" height="124" viewBox="0 0 600 124" fill="none" xmlns="http://www.w3.org/2000/svg">
<path d="M24.9478 2.13672V122.285H0.274475V2.13672H24.9478ZM123.083 59.4878V107.102C121.213 109.357 118.325 111.805 114.419 114.446C110.513 117.031 105.479 119.259 99.3177 121.13C93.1563 123 85.702 123.936 76.9549 123.936C66.6125 123.936 57.5353 121.68 49.7235 117.169C41.9116 112.603 35.8327 106.001 31.4867 97.3643C27.1406 88.7272 24.9676 78.2747 24.9676 66.0068V58.4976C24.9676 46.1746 27.0581 35.6947 31.2391 27.0576C35.4201 18.4206 41.279 11.819 48.8158 7.25293C56.4076 2.68685 65.2372 0.403809 75.3045 0.403809C85.757 0.403809 94.339 2.10921 101.051 5.52002C107.762 8.87581 112.878 13.5519 116.399 19.5483C119.975 25.4897 122.176 32.3114 123.001 40.0132H98.9876C98.3825 35.9422 97.2272 32.3939 95.5218 29.3682C93.8164 26.3424 91.3683 23.9769 88.1776 22.2715C85.0418 20.5661 80.9709 19.7134 75.9647 19.7134C70.4634 19.7134 65.7873 21.1987 61.9364 24.1694C58.0855 27.0851 55.1423 31.4036 53.1068 37.125C51.0713 42.8464 50.0536 49.9155 50.0536 58.3325V66.0068C50.0536 74.3688 51.1263 81.438 53.2718 87.2144C55.4173 92.9357 58.5806 97.2817 62.7616 100.252C66.9976 103.168 72.2238 104.626 78.4403 104.626C82.3462 104.626 85.592 104.296 88.1776 103.636C90.8182 102.976 92.9362 102.178 94.5316 101.243C96.182 100.252 97.4473 99.3172 98.3275 98.437V77.147H75.7171V59.4878H123.083ZM189.119 2.13672H213.792V81.5205C213.792 90.7627 211.812 98.547 207.851 104.874C203.945 111.2 198.526 115.959 191.594 119.149C184.718 122.34 176.796 123.936 167.829 123.936C158.862 123.936 150.885 122.34 143.898 119.149C136.966 115.959 131.52 111.2 127.559 104.874C123.653 98.547 121.7 90.7627 121.7 81.5205V2.13672H146.456V81.5205C146.456 86.9118 147.309 91.3128 149.014 94.7236C150.72 98.1344 153.168 100.638 156.359 102.233C159.604 103.828 163.428 104.626 167.829 104.626C172.34 104.626 176.163 103.828 179.299 102.233C182.49 100.638 184.91 98.1344 186.561 94.7236C188.266 91.3128 189.119 86.9118 189.119 81.5205V2.13672ZM260.931 22.6841L228.253 122.285H201.929L246.572 2.13672H263.324L260.931 22.6841ZM288.079 122.285L255.319 22.6841L252.679 2.13672H269.595L314.486 122.285H288.079ZM286.594 77.5596V96.9517H223.137V77.5596H286.594ZM403.132 2.13672V122.285H378.376L330.102 41.7461V122.285H305.346V2.13672H330.102L378.458 82.7583V2.13672H403.132ZM430.713 2.13672V122.285H406.04V2.13672H430.713ZM458.377 2.13672V122.285H433.621V2.13672H458.377ZM506.238 53.4639V72.7734H451.61V53.4639H506.238ZM512.014 2.13672V21.5288H451.61V2.13672H512.014ZM522.597 2.13672L547.683 56.9297L572.769 2.13672H599.752L560.226 78.5498V122.285H535.14V78.5498L495.53 2.13672H522.597Z" fill="url(#paint0_linear_126_1504)"/>
<defs>
<linearGradient id="paint0_linear_126_1504" x1="472.936" y1="-73.6392" x2="386.493" y2="313.044" gradientUnits="userSpaceOnUse">
<stop stop-color="#0F172A"/>
<stop offset="0.235" stop-color="#1E293B"/>
<stop offset="0.58" stop-color="#028090"/>
<stop offset="0.82" stop-color="#00A896"/>
<stop offset="1" stop-color="#A7E22E"/>
</linearGradient>
</defs>
</svg>
